<?xml version="1.0" standalone="no"?>
<!DOCTYPE svg PUBLIC "-//W3C//DTD SVG 20010904//EN"
 "http://www.w3.org/TR/2001/REC-SVG-20010904/DTD/svg10.dtd">
<svg version="1.0" xmlns="http://www.w3.org/2000/svg"
 width="718.000000pt" height="317.000000pt" viewBox="0 0 718.000000 317.000000"
 preserveAspectRatio="xMidYMid meet">

<g transform="translate(0.000000,317.000000) scale(0.100000,-0.100000)"
fill="#000000" stroke="none">
<path d="M3165 3058 c-4 -9 -50 -54 -103 -100 -90 -79 -175 -188 -159 -204 13
-13 141 91 184 150 50 67 97 155 89 163 -3 3 -8 -1 -11 -9z m-112 -153 c-37
-41 -72 -75 -78 -75 -5 0 24 34 65 75 41 41 76 75 78 75 2 0 -27 -34 -65 -75z"/>
<path d="M3730 3063 c0 -13 65 -126 97 -168 39 -50 169 -153 180 -142 13 14
-66 123 -127 176 -36 31 -84 75 -107 97 -24 23 -43 40 -43 37z m201 -225 c18
-33 2 -18 -67 60 l-68 77 63 -60 c34 -33 67 -68 72 -77z"/>
<path d="M2863 2879 c-17 -22 -44 -65 -60 -95 l-28 -54 20 -38 20 -37 -37 -65
c-21 -36 -38 -71 -38 -78 0 -7 17 20 38 60 l39 73 54 -3 c52 -3 56 -1 127 55
l72 58 -37 8 c-47 10 -97 2 -114 -19 -7 -8 -20 -19 -30 -25 -15 -7 -17 -6 -14
10 2 10 11 33 19 50 17 31 22 126 8 135 -5 3 -22 -13 -39 -35z m-9 -101 c-10
-34 -20 -55 -22 -45 -4 18 28 120 36 113 2 -2 -5 -33 -14 -68z m132 -60 c-32
-18 -141 -59 -130 -48 11 11 124 59 139 59 6 0 1 -5 -9 -11z"/>
<path d="M4007 2914 c-13 -13 -7 -105 9 -135 17 -34 26 -69 17 -69 -3 0 -18
11 -35 25 -38 32 -66 39 -118 28 l-43 -8 76 -59 c74 -56 79 -58 128 -54 l52 3
38 -75 c22 -41 39 -68 39 -60 0 8 -17 45 -38 80 l-38 66 18 29 c25 42 23 53
-19 122 -53 84 -77 115 -86 107z m76 -188 c3 -21 4 -36 1 -34 -6 7 -44 140
-43 153 1 19 36 -80 42 -119z m-78 -32 c28 -13 39 -21 25 -18 -14 3 -47 17
-75 30 -27 13 -39 21 -25 18 14 -4 48 -17 75 -30z"/>
<path d="M2744 2849 c-23 -28 -73 -136 -89 -193 -22 -74 -15 -118 26 -169 31
-38 31 -40 20 -95 -6 -30 -11 -74 -12 -96 0 -56 -13 -23 -28 73 -6 40 -18 85
-26 101 -8 15 -25 60 -39 100 l-24 73 -12 -39 c-18 -63 -24 -196 -10 -252 12
-54 49 -95 110 -127 27 -14 30 -21 30 -63 0 -26 5 -65 10 -87 5 -22 7 -41 5
-43 -2 -2 -22 31 -44 74 -28 55 -66 105 -122 164 l-81 85 6 -45 c18 -117 76
-257 119 -284 12 -9 47 -21 77 -29 41 -10 58 -20 65 -38 6 -13 24 -52 41 -86
34 -70 31 -69 -68 24 -36 35 -71 63 -77 63 -9 0 -63 29 -148 82 l-33 19 18
-38 c35 -75 56 -109 104 -171 67 -84 93 -96 185 -89 l73 5 63 -64 c35 -35 60
-64 56 -64 -4 0 -40 14 -80 31 -44 19 -110 36 -168 45 -53 7 -112 18 -131 24
-19 5 -36 10 -38 10 -1 0 5 -12 15 -26 25 -39 129 -119 198 -153 82 -40 123
-40 202 3 37 20 65 30 71 24 5 -5 42 -27 83 -48 82 -44 82 -44 -25 -30 -67 10
-84 8 -172 -14 -53 -14 -119 -29 -147 -32 l-50 -7 38 -20 c60 -30 136 -54 217
-67 68 -11 79 -11 119 7 24 11 65 39 91 62 l47 41 88 -36 c48 -20 92 -39 96
-43 4 -4 -30 -24 -76 -45 -127 -57 -150 -72 -137 -95 19 -37 49 -36 89 2 40
39 158 107 185 107 28 0 132 -59 181 -102 48 -42 76 -44 95 -8 8 16 6 22 -12
34 -23 15 -155 77 -192 90 -27 9 -14 19 87 60 l88 36 47 -41 c70 -63 120 -82
190 -73 76 9 167 36 226 66 l50 25 -50 7 c-27 4 -93 18 -147 32 -89 22 -106
24 -174 14 -106 -14 -106 -14 -24 30 41 21 78 43 83 48 6 6 34 -4 71 -24 79
-43 120 -43 203 -3 97 48 261 194 196 175 -57 -16 -105 -26 -162 -32 -36 -3
-104 -21 -151 -40 -48 -19 -88 -34 -90 -34 -3 0 23 29 56 64 l61 63 77 -5 c64
-4 81 -1 107 15 46 29 115 117 162 207 l41 79 -34 -21 c-61 -37 -161 -92 -168
-92 -4 0 -25 -18 -46 -41 -22 -22 -56 -53 -75 -69 l-36 -28 31 62 c16 34 35
72 40 85 8 18 24 28 65 38 30 7 66 22 80 32 44 32 94 153 115 281 l8 45 -87
-90 c-62 -65 -96 -110 -122 -164 -19 -40 -37 -71 -39 -69 -2 2 0 21 5 43 5 22
10 62 10 88 0 44 3 49 32 65 18 9 49 33 69 52 31 30 38 45 44 94 8 65 1 170
-16 230 l-11 39 -28 -79 c-15 -44 -35 -95 -43 -114 -8 -19 -18 -62 -22 -96 -8
-72 -25 -108 -25 -53 0 20 -5 61 -11 91 -11 55 -11 57 20 95 41 51 48 95 26
169 -18 63 -78 189 -95 199 -16 10 -12 -183 6 -264 24 -105 14 -114 -47 -47
-55 60 -77 70 -187 80 l-62 6 92 -77 c80 -67 102 -80 158 -93 l65 -16 12 -55
c6 -30 12 -70 12 -89 1 -33 0 -32 -28 26 -34 72 -63 97 -136 118 -87 26 -90
23 -42 -41 24 -32 55 -74 70 -94 14 -20 50 -49 82 -65 l56 -29 -6 -62 c-4 -34
-10 -75 -14 -90 -8 -26 -8 -26 -15 17 -12 75 -25 105 -59 137 -34 32 -125 88
-132 81 -2 -2 14 -51 35 -108 36 -95 45 -110 97 -156 l57 -51 -22 -54 c-24
-59 -67 -128 -58 -94 14 58 16 117 3 147 -15 34 -134 155 -143 145 -3 -3 -1
-29 4 -59 6 -29 13 -74 17 -99 4 -29 22 -72 49 -117 l44 -70 -28 -34 c-16 -19
-45 -47 -64 -62 l-35 -26 24 52 c14 29 25 68 25 86 0 38 -29 98 -76 161 l-34
44 0 -37 c0 -20 -5 -68 -11 -106 -10 -59 -9 -80 6 -142 10 -40 19 -78 22 -84
3 -9 -132 -94 -151 -94 -4 0 6 16 23 35 52 60 64 92 59 159 -3 34 -13 87 -23
118 l-18 57 -50 -102 c-49 -102 -49 -102 -48 -198 l1 -97 -117 -47 -117 -47
-71 28 c-38 14 -91 36 -117 47 l-48 19 0 98 c0 96 -1 100 -47 195 -51 106 -54
107 -79 11 -29 -108 -14 -176 54 -248 36 -38 20 -35 -65 14 -52 29 -72 46 -69
57 33 109 38 154 27 221 -6 38 -11 86 -11 106 l0 37 -36 -47 c-44 -58 -74
-122 -74 -161 0 -16 11 -54 25 -83 l24 -52 -35 26 c-19 15 -48 43 -65 63 -26
32 -27 37 -14 56 53 72 70 114 87 209 10 56 16 105 15 111 -2 5 -34 -19 -70
-54 -79 -75 -93 -111 -79 -189 12 -69 -6 -55 -44 34 l-28 66 61 56 c52 49 64
67 83 127 13 39 29 83 37 98 8 16 12 31 10 34 -9 8 -87 -37 -127 -74 -40 -35
-69 -102 -71 -162 -1 -25 -1 -25 -10 4 -5 17 -11 57 -15 90 l-6 60 57 29 c32
16 68 45 82 65 15 20 46 62 70 94 50 66 44 70 -53 37 -85 -30 -106 -51 -138
-141 l-15 -44 0 45 c1 25 6 67 12 94 l12 50 67 16 c55 13 78 26 130 71 35 30
77 65 93 78 l30 23 -35 -6 c-19 -3 -62 -8 -95 -11 -57 -6 -63 -10 -118 -66
-69 -70 -76 -64 -52 48 19 91 18 276 -1 252z m1472 -195 c4 -29 3 -78 -2 -111
-8 -56 -8 -54 -15 62 -3 66 -9 134 -13 150 -5 22 -2 20 9 -9 8 -22 18 -63 21
-92z m-1504 -39 c-6 -126 -18 -137 -21 -18 -1 47 17 159 24 151 1 -2 0 -61 -3
-133z m189 -58 c-118 -71 -161 -95 -161 -92 0 8 116 89 153 105 64 28 68 23 8
-13z m1113 13 c39 -16 156 -96 156 -105 0 -2 -24 11 -54 28 -175 104 -190 115
-102 77z m-1402 -180 c11 -36 29 -82 40 -104 26 -52 7 -37 -27 21 -33 55 -55
133 -54 188 l1 40 9 -40 c5 -22 19 -69 31 -105z m1718 36 c-12 -64 -35 -114
-70 -156 l-21 -25 19 40 c24 48 71 197 73 228 2 20 2 20 6 -2 3 -14 0 -52 -7
-85z m-1450 -9 c0 -1 -37 -38 -81 -82 -76 -74 -79 -76 -48 -31 33 48 129 132
129 113z m1234 -62 c22 -24 50 -58 60 -77 10 -18 15 -28 9 -23 -5 6 -43 45
-83 89 -41 43 -64 73 -51 66 12 -6 42 -31 65 -55z m-1587 -132 c16 -27 60 -86
98 -132 62 -77 64 -82 27 -53 -58 46 -88 85 -128 164 -19 37 -33 68 -31 68 2
0 17 -21 34 -47z m292 -84 c-68 -114 -86 -138 -70 -97 22 57 65 135 95 169 17
19 32 35 34 33 2 -1 -25 -48 -59 -105z m1561 51 c-33 -66 -76 -119 -124 -152
l-31 -22 27 34 c15 19 56 72 90 117 35 46 64 83 66 83 1 0 -11 -27 -28 -60z
m-279 -26 c20 -34 71 -144 65 -144 -4 0 -60 89 -103 165 -33 57 -33 59 -8 35
14 -13 35 -39 46 -56z m-1223 -224 c-36 -105 -39 -110 -34 -61 5 48 60 190 70
180 2 -2 -14 -56 -36 -119z m1152 61 c18 -36 32 -83 35 -118 l6 -58 -34 100
c-19 55 -38 108 -42 118 -4 9 -4 17 -1 17 3 0 19 -27 36 -59z m-1400 -116 c30
-22 78 -52 105 -68 38 -22 43 -27 21 -22 -73 16 -208 111 -237 168 -9 17 -4
15 22 -9 19 -17 59 -48 89 -69z m1761 77 c-20 -37 -113 -114 -174 -142 -83
-40 -106 -38 -37 3 78 45 171 111 194 136 23 26 30 27 17 3z m-1385 -38 c-4
-9 -7 -76 -8 -148 l-1 -131 -14 70 c-8 39 -11 88 -8 110 8 54 25 115 31 115 4
0 3 -7 0 -16z m926 -134 c0 -41 -5 -88 -11 -105 -7 -23 -10 -3 -10 90 -1 66
-4 131 -6 145 -3 14 2 7 11 -15 11 -26 17 -66 16 -115z m-736 -247 c-10 -11
-66 173 -71 232 -5 66 -3 62 34 -80 22 -82 39 -151 37 -152z m589 225 c-4 -44
-19 -103 -37 -148 -34 -82 -57 -119 -35 -55 7 22 27 93 42 158 16 64 31 117
33 117 2 0 1 -33 -3 -72z m-1137 -92 c34 -17 210 -56 256 -56 19 0 38 -4 41
-10 4 -6 -21 -10 -67 -10 -78 0 -172 27 -238 68 -39 24 -34 30 8 8z m1622 -8
c-68 -42 -160 -68 -240 -67 -89 0 -72 11 45 29 44 6 109 22 145 35 84 29 92
30 50 3z m-1100 -182 c0 -2 -30 -14 -67 -26 -79 -26 -200 -36 -258 -22 l-40
10 48 1 c55 1 290 30 296 37 6 5 21 5 21 0z m717 -21 c57 -8 129 -15 160 -16
l58 -1 -40 -10 c-62 -15 -181 -4 -265 25 -41 15 -61 24 -45 22 17 -3 76 -12
132 -20z"/>
<path d="M3104 2635 c25 -26 28 -50 24 -244 -3 -167 -5 -184 -22 -197 -18 -13
-12 -14 54 -14 66 0 72 1 54 14 -16 12 -20 29 -22 115 l-4 101 48 0 c30 0 54
-6 66 -17 17 -15 18 -14 18 37 0 48 -1 52 -14 35 -10 -14 -27 -19 -62 -19
l-49 -1 0 85 0 85 72 3 c67 3 73 1 105 -27 l34 -30 -5 42 -6 42 -153 3 c-141
2 -153 1 -138 -13z"/>
<path d="M3510 2630 c19 -19 20 -33 20 -219 0 -195 -1 -200 -22 -215 -21 -15
-18 -16 57 -16 75 0 78 1 57 16 -20 14 -22 23 -22 115 l0 99 44 0 c27 0 51 -6
60 -16 15 -14 16 -11 16 31 0 46 0 46 -22 31 -12 -9 -39 -16 -60 -16 l-38 0 0
90 0 90 72 0 c68 0 74 -2 106 -32 34 -32 35 -32 29 -8 -4 14 -7 35 -7 48 0 22
-1 22 -155 22 l-155 0 20 -20z"/>
<path d="M840 880 c0 -5 7 -10 15 -10 13 0 15 -31 15 -220 0 -189 -2 -220 -15
-220 -8 0 -15 -4 -15 -10 0 -6 28 -10 65 -10 37 0 65 4 65 10 0 6 -7 10 -15
10 -12 0 -15 18 -15 100 l0 100 80 0 c77 0 81 -1 90 -25 15 -40 20 -30 20 45
0 66 -15 98 -22 48 -3 -21 -9 -23 -85 -26 l-83 -3 0 96 0 95 83 0 c87 0 97 -3
115 -35 10 -17 11 -14 12 23 l0 42 -155 0 c-97 0 -155 -4 -155 -10z"/>
<path d="M1694 871 c-52 -24 -74 -55 -74 -105 0 -33 7 -45 48 -85 26 -25 78
-67 115 -93 37 -27 70 -55 73 -63 11 -27 -22 -62 -69 -73 -78 -20 -150 18
-163 85 -3 18 -9 33 -13 33 -9 0 -8 -147 2 -156 4 -4 7 3 7 15 0 26 0 26 82
-6 41 -15 53 -16 95 -5 63 17 105 58 106 104 1 50 -22 80 -113 143 -127 89
-148 127 -98 172 47 42 168 9 176 -48 2 -13 8 -28 13 -33 5 -6 9 18 9 62 0 41
-4 72 -10 72 -5 0 -10 -7 -10 -15 0 -8 -4 -15 -9 -15 -5 0 -28 7 -51 15 -54
19 -66 19 -116 -4z"/>
<path d="M1950 880 c0 -5 7 -10 15 -10 13 0 15 -31 15 -220 0 -189 -2 -220
-15 -220 -8 0 -15 -4 -15 -10 0 -6 28 -10 65 -10 37 0 65 4 65 10 0 6 -7 10
-15 10 -12 0 -15 18 -15 100 l0 100 90 0 90 0 0 -100 c0 -82 -3 -100 -15 -100
-8 0 -15 -4 -15 -10 0 -6 28 -10 65 -10 37 0 65 4 65 10 0 6 -7 10 -15 10 -13
0 -15 31 -15 220 0 189 2 220 15 220 8 0 15 5 15 10 0 6 -28 10 -65 10 -37 0
-65 -4 -65 -10 0 -5 7 -10 15 -10 12 0 15 -18 15 -100 l0 -100 -90 0 -90 0 0
95 c0 76 3 97 15 101 34 13 11 24 -50 24 -37 0 -65 -4 -65 -10z"/>
<path d="M2380 881 c0 -5 7 -11 15 -15 23 -8 23 -436 0 -436 -8 0 -15 -4 -15
-10 0 -6 28 -10 65 -10 37 0 65 4 65 10 0 6 -7 10 -15 10 -13 0 -15 31 -15
220 0 189 2 220 15 220 8 0 15 5 15 10 0 6 -28 10 -65 10 -36 0 -65 -4 -65 -9z"/>
<path d="M2738 881 c-107 -22 -182 -116 -182 -231 0 -261 347 -328 452 -87 7
15 12 56 12 90 0 95 -45 169 -124 206 -50 23 -109 32 -158 22z m127 -50 c16
-9 43 -39 59 -65 26 -41 30 -57 30 -116 -1 -55 -6 -77 -28 -114 -61 -104 -167
-120 -246 -37 -78 82 -80 211 -4 299 53 62 117 74 189 33z"/>
<path d="M3060 881 c0 -6 9 -11 20 -11 28 0 31 -22 28 -235 -3 -186 -3 -190
-25 -200 -39 -17 -25 -25 42 -25 37 0 65 4 65 10 0 6 -9 10 -20 10 -11 0 -23
6 -26 13 -2 7 -3 84 -2 171 l3 159 135 -178 135 -178 5 224 c5 223 5 224 28
227 48 7 19 22 -43 22 -62 0 -91 -15 -42 -22 22 -3 22 -6 25 -153 2 -96 -1
-146 -7 -140 -5 6 -61 78 -124 160 -112 147 -115 150 -155 153 -25 2 -42 -1
-42 -7z"/>
<path d="M3720 880 c0 -5 7 -10 15 -10 13 0 15 -31 15 -220 0 -189 -2 -220
-15 -220 -8 0 -15 -4 -15 -10 0 -6 28 -10 65 -10 37 0 65 4 65 10 0 6 -7 10
-15 10 -12 0 -15 18 -15 100 l0 100 80 0 c77 0 81 -1 90 -25 15 -40 20 -30 20
46 0 44 -4 68 -10 64 -5 -3 -10 -15 -10 -26 0 -17 -8 -19 -85 -19 l-85 0 0 95
0 95 83 0 c87 0 97 -3 115 -35 10 -17 11 -14 12 23 l0 42 -155 0 c-97 0 -155
-4 -155 -10z"/>
<path d="M4080 881 c0 -5 7 -11 15 -15 23 -8 23 -436 0 -436 -8 0 -15 -4 -15
-10 0 -6 28 -10 65 -10 37 0 65 4 65 10 0 6 -7 10 -15 10 -13 0 -15 31 -15
220 0 189 2 220 15 220 8 0 15 5 15 10 0 6 -28 10 -65 10 -36 0 -65 -4 -65 -9z"/>
<path d="M4255 880 c-4 -6 5 -10 20 -10 l25 0 -2 -217 c-3 -218 -3 -218 -25
-221 -51 -7 -19 -22 47 -22 40 0 70 4 70 10 0 6 -11 10 -25 10 l-25 0 0 172
c0 96 4 168 9 162 8 -9 50 -63 187 -244 l79 -105 5 225 c5 224 5 225 28 228
12 2 22 8 22 13 0 12 -127 12 -135 -1 -3 -6 5 -10 19 -10 l25 0 3 -145 c2 -80
0 -145 -3 -145 -4 0 -59 70 -124 155 -116 152 -119 155 -156 155 -21 0 -41 -4
-44 -10z"/>
<path d="M4710 880 c0 -5 6 -10 14 -10 23 0 26 -24 26 -232 0 -191 -1 -200
-20 -205 -55 -15 -4 -23 140 -23 l160 0 0 40 c0 45 -10 52 -25 18 -9 -21 -16
-23 -100 -23 l-90 0 -3 93 -3 92 85 0 c83 0 85 0 94 -27 9 -23 10 -15 10 47 0
62 -1 70 -10 48 -9 -28 -11 -28 -94 -28 l-85 0 3 93 3 92 90 0 c84 0 91 -2
100 -22 15 -35 27 -27 23 15 l-3 37 -157 3 c-103 2 -158 -1 -158 -8z"/>
<path d="M5165 875 c-85 -30 -109 -109 -55 -177 11 -14 60 -54 110 -89 99 -70
116 -97 83 -131 -66 -66 -213 -23 -213 63 0 16 -4 29 -10 29 -6 0 -10 -33 -10
-80 0 -44 4 -80 9 -80 5 0 7 9 4 20 -7 25 -1 25 65 0 29 -11 64 -20 79 -20 41
0 112 39 128 71 34 66 9 107 -117 196 -91 64 -113 91 -104 129 9 34 64 57 114
48 42 -8 92 -53 92 -83 0 -12 5 -21 10 -21 6 0 9 16 6 38 -3 20 -5 53 -6 72
-1 32 -2 33 -10 12 -9 -21 -11 -22 -38 -8 -44 23 -93 27 -137 11z"/>
<path d="M5515 878 c-61 -22 -99 -76 -89 -128 8 -39 42 -73 144 -145 94 -66
108 -86 86 -119 -27 -42 -104 -51 -179 -21 -21 9 -47 55 -47 85 0 11 -4 20
-10 20 -6 0 -10 -33 -10 -80 0 -47 4 -80 10 -80 6 0 10 9 10 20 0 25 7 25 61
0 55 -24 93 -25 145 -1 50 23 74 55 74 99 0 48 -22 75 -124 147 -108 77 -122
95 -106 136 33 79 200 47 200 -38 0 -13 5 -23 10 -23 12 0 13 127 1 134 -5 3
-11 -3 -14 -14 -5 -18 -7 -18 -33 -5 -42 20 -95 26 -129 13z"/>
<path d="M5760 880 c0 -5 7 -10 15 -10 13 0 15 -31 15 -220 0 -189 -2 -220
-15 -220 -8 0 -15 -4 -15 -10 0 -6 58 -10 155 -10 l155 0 0 43 c-1 36 -2 39
-12 22 -18 -32 -28 -35 -115 -35 l-83 0 0 95 0 95 80 0 c77 0 81 -1 90 -25 15
-40 20 -30 20 46 0 44 -4 68 -10 64 -5 -3 -10 -15 -10 -26 0 -17 -8 -19 -85
-19 l-85 0 0 95 0 95 83 0 c87 0 97 -3 115 -35 10 -17 11 -14 12 23 l0 42
-155 0 c-97 0 -155 -4 -155 -10z"/>
<path d="M1243 662 c-85 -204 -93 -218 -122 -227 -51 -15 -36 -25 39 -25 40 0
70 4 70 10 0 6 -9 10 -20 10 -24 0 -25 9 -5 56 l14 35 102 -3 101 -3 16 -39
c12 -29 13 -41 4 -44 -32 -10 -5 -22 53 -22 37 0 65 4 65 10 0 6 -6 10 -13 10
-16 0 -16 1 -119 245 -44 105 -83 193 -87 197 -3 4 -47 -90 -98 -210z m120 -5
c20 -50 37 -95 37 -99 0 -5 -36 -8 -80 -8 -44 0 -80 4 -80 9 0 15 73 191 79
191 4 0 23 -42 44 -93z"/>
<path d="M840 170 l0 -70 38 0 c55 0 82 23 82 70 0 47 -27 70 -82 70 l-38 0 0
-70z m82 25 c15 -33 -3 -75 -32 -75 -17 0 -20 6 -20 50 0 44 3 50 20 50 12 0
25 -10 32 -25z"/>
<path d="M1034 227 c-3 -8 -4 -39 -2 -68 2 -40 7 -54 18 -54 20 0 22 126 3
132 -7 3 -15 -2 -19 -10z"/>
<path d="M1147 234 c-4 -4 -7 -18 -7 -31 0 -18 9 -27 40 -39 49 -20 47 -40 -4
-37 -51 3 -43 -21 8 -25 74 -6 90 49 23 81 -46 21 -40 42 10 32 27 -5 34 -3
31 7 -5 14 -89 24 -101 12z"/>
<path d="M1330 220 c-56 -56 8 -143 84 -114 28 11 18 26 -12 19 -37 -8 -54 12
-50 57 3 30 6 33 41 36 46 4 39 22 -9 22 -21 0 -42 -8 -54 -20z"/>
<path d="M1517 222 c-23 -25 -22 -85 1 -105 19 -18 68 -22 89 -9 6 4 16 20 22
35 11 29 0 75 -22 89 -22 14 -74 8 -90 -10z m71 -14 c26 -26 8 -88 -25 -88
-21 0 -36 50 -24 77 12 25 31 29 49 11z"/>
<path d="M1690 223 c0 -26 30 -112 41 -119 24 -14 47 9 64 66 10 33 15 63 11
68 -11 10 -35 -26 -42 -65 -8 -45 -18 -42 -35 14 -15 48 -39 70 -39 36z"/>
<path d="M1882 173 l3 -68 48 -3 c52 -3 66 15 15 20 -46 4 -53 38 -9 38 38 0
41 18 4 22 -17 2 -29 10 -31 21 -3 13 3 17 27 17 17 0 31 5 31 10 0 6 -20 10
-45 10 l-46 0 3 -67z"/>
<path d="M2050 169 c0 -52 3 -70 13 -67 6 3 13 17 15 31 5 39 38 37 47 -3 4
-16 13 -30 21 -30 16 0 19 33 4 60 -7 13 -7 21 0 25 16 10 12 42 -6 49 -9 3
-33 6 -55 6 l-39 0 0 -71z m75 31 c0 -8 -10 -16 -22 -18 -18 -3 -23 2 -23 18
0 16 5 21 23 18 12 -2 22 -10 22 -18z"/>
<path d="M2317 234 c-3 -4 1 -21 11 -38 9 -17 19 -44 22 -61 7 -39 34 -40 38
-1 2 15 12 42 23 60 22 37 24 46 6 46 -7 0 -20 -15 -29 -32 l-15 -33 -17 33
c-16 31 -26 38 -39 26z"/>
<path d="M2496 224 c-22 -22 -21 -87 2 -107 19 -18 68 -22 89 -9 32 20 32 104
1 124 -22 13 -76 9 -92 -8z m72 -16 c26 -26 8 -88 -25 -88 -23 0 -38 46 -25
75 13 27 31 32 50 13z"/>
<path d="M2682 178 c3 -58 5 -63 31 -72 17 -6 37 -6 55 0 25 9 27 14 30 72 2
51 0 62 -13 62 -14 0 -21 -41 -16 -86 1 -6 -6 -17 -14 -24 -26 -21 -45 5 -45
61 0 38 -4 49 -15 49 -13 0 -15 -11 -13 -62z"/>
<path d="M2874 226 c-3 -7 -4 -38 -2 -67 2 -40 7 -54 18 -54 9 0 16 11 18 28
4 35 33 33 42 -2 6 -28 27 -39 35 -19 3 8 2 25 -3 39 -6 15 -5 30 1 41 8 12 7
21 -2 32 -17 20 -99 22 -107 2z m76 -26 c0 -13 -7 -20 -20 -20 -13 0 -20 7
-20 20 0 13 7 20 20 20 13 0 20 -7 20 -20z"/>
<path d="M3164 226 c-3 -7 -4 -38 -2 -67 2 -40 7 -54 18 -54 9 0 16 11 18 28
3 21 9 27 28 27 13 0 24 5 24 10 0 6 -11 10 -25 10 -18 0 -25 5 -25 20 0 16 7
20 30 20 17 0 30 5 30 10 0 16 -90 12 -96 -4z"/>
<path d="M3321 184 c-11 -31 -21 -62 -21 -70 0 -19 19 -18 26 1 8 21 74 21 74
0 0 -8 7 -15 16 -15 19 0 14 29 -16 98 -27 61 -51 57 -79 -14z m58 -21 c1 -7
-8 -13 -18 -13 -18 0 -19 3 -9 32 10 28 12 30 19 12 4 -10 8 -25 8 -31z"/>
<path d="M3497 234 c-4 -4 -7 -18 -7 -31 0 -19 9 -28 40 -40 49 -20 47 -39 -4
-36 -51 3 -43 -21 8 -25 74 -6 90 49 23 81 -42 20 -40 40 3 35 16 -2 30 2 32
7 3 11 -84 20 -95 9z"/>
<path d="M3672 173 c2 -42 8 -68 16 -71 8 -2 12 7 12 27 0 27 3 31 29 31 24 0
29 -4 29 -25 0 -30 6 -40 21 -30 6 3 11 35 11 71 0 50 -3 64 -15 64 -9 0 -15
-9 -15 -25 0 -21 -5 -25 -30 -25 -25 0 -30 4 -30 25 0 16 -6 25 -15 25 -13 0
-15 -12 -13 -67z"/>
<path d="M3864 227 c-3 -8 -4 -39 -2 -68 2 -40 7 -54 18 -54 20 0 22 126 3
132 -7 3 -15 -2 -19 -10z"/>
<path d="M3987 222 c-23 -25 -22 -85 1 -105 38 -34 97 -16 115 36 7 20 -9 68
-26 79 -22 14 -74 8 -90 -10z m71 -14 c26 -26 8 -88 -25 -88 -23 0 -38 46 -25
75 13 27 31 32 50 13z"/>
<path d="M4174 226 c-3 -7 -4 -37 -2 -66 4 -69 26 -79 30 -14 l3 47 33 -47
c19 -26 39 -45 45 -43 7 2 13 31 15 70 2 54 0 67 -12 67 -11 0 -16 -13 -18
-46 l-3 -46 -32 46 c-34 47 -50 56 -59 32z"/>
<path d="M4480 220 c-14 -26 -6 -39 36 -56 19 -8 34 -21 34 -30 0 -13 -7 -15
-41 -9 -33 6 -40 4 -37 -6 9 -28 101 -23 112 6 9 25 -4 43 -40 55 -48 16 -47
45 2 37 25 -4 34 -2 31 6 -2 7 -22 13 -45 15 -33 3 -43 -1 -52 -18z"/>
<path d="M4654 227 c-3 -8 -4 -39 -2 -68 2 -40 7 -54 18 -54 20 0 22 126 3
132 -7 3 -15 -2 -19 -10z"/>
<path d="M4777 222 c-23 -25 -22 -85 1 -105 11 -10 35 -17 60 -17 36 0 42 3
48 25 3 14 4 32 0 40 -6 17 -56 21 -56 5 0 -5 5 -10 10 -10 6 0 10 -9 10 -20
0 -30 -38 -26 -52 5 -8 19 -8 31 1 51 10 22 17 26 46 22 24 -3 35 0 35 9 0 21
-83 17 -103 -5z"/>
<path d="M4960 169 c0 -52 3 -70 13 -67 6 3 13 24 15 47 l3 42 35 -45 c19 -25
39 -46 43 -46 13 0 20 39 16 85 -4 56 -4 55 -14 55 -6 0 -11 -21 -13 -47 l-3
-48 -33 48 c-48 68 -62 63 -62 -24z"/>
<path d="M5193 228 c-6 -7 -18 -37 -28 -65 -19 -54 -14 -82 9 -50 16 21 72 23
80 2 7 -19 26 -19 26 0 0 8 -11 39 -24 70 -24 54 -44 67 -63 43z m37 -60 c0
-10 -7 -18 -15 -18 -16 0 -19 17 -9 45 5 13 8 14 15 3 5 -7 9 -21 9 -30z"/>
<path d="M5320 230 c0 -5 9 -10 20 -10 16 0 19 -8 22 -57 2 -44 7 -58 18 -58
11 0 16 14 18 58 2 42 7 57 17 57 8 0 15 5 15 10 0 6 -25 10 -55 10 -30 0 -55
-4 -55 -10z"/>
<path d="M5498 194 c-5 -65 9 -88 53 -92 53 -4 71 18 67 82 -2 37 -7 51 -18
51 -11 0 -16 -14 -18 -53 -2 -37 -8 -55 -19 -59 -22 -8 -33 15 -33 70 0 33 -4
47 -14 47 -9 0 -15 -15 -18 -46z"/>
<path d="M5690 176 c0 -36 5 -68 11 -71 14 -9 18 -4 22 26 5 32 39 33 47 0 3
-14 11 -26 18 -29 16 -5 16 50 0 66 -9 9 -9 12 1 12 8 0 11 10 9 28 -3 25 -7
27 -55 30 l-53 3 0 -65z m78 27 c-2 -10 -13 -19 -26 -21 -17 -3 -22 2 -22 17
0 16 6 21 26 21 19 0 25 -5 22 -17z"/>
<path d="M5879 228 c-1 -24 -1 -93 0 -110 1 -14 10 -18 46 -18 25 0 45 5 45
10 0 6 -13 10 -30 10 -23 0 -30 4 -30 20 0 16 7 20 30 20 17 0 30 5 30 10 0 6
-13 10 -30 10 -23 0 -30 4 -30 20 0 16 7 20 30 20 17 0 30 5 30 10 0 15 -90
13 -91 -2z"/>
<path d="M6047 124 c-8 -8 1 -24 14 -24 5 0 9 7 9 15 0 15 -12 20 -23 9z"/>
</g>
</svg>
